<svg xmlns="http://www.w3.org/2000/svg" viewBox="0 0 1200 675">
  <defs><linearGradient id="l" x1="0" y1="0" x2="0" y2="1"><stop stop-color="#333a42"/><stop offset="1" stop-color="#12171c"/></linearGradient></defs>
  <rect width="1200" height="675" fill="url(#l)"/>
  <rect y="430" width="1200" height="245" fill="#191a1b"/>
  <rect x="250" y="330" width="520" height="110" rx="8" fill="#3b3028" stroke="#725e4c" stroke-width="3"/>
  <rect x="350" y="267" width="210" height="110" rx="8" fill="#11161b" stroke="#66727d" stroke-width="3"/><rect x="378" y="292" width="154" height="62" fill="#232d36"/>
  <rect x="770" y="260" width="240" height="210" rx="8" fill="#2a3036" stroke="#636d75" stroke-width="3"/>
  <rect x="805" y="300" width="170" height="78" rx="4" fill="#11161b"/><rect x="830" y="320" width="120" height="38" fill="#d8d2c4"/>
  <rect x="145" y="440" width="150" height="160" rx="8" fill="#242a30" stroke="#66717a" stroke-width="3"/><path d="M175 470h90M175 500h90M175 530h90" stroke="#7b858e" stroke-width="6"/>
  <rect x="130" y="570" width="180" height="35" fill="#11161b"/><path d="M150 585h140" stroke="#8c7c59" stroke-width="5" stroke-dasharray="12 8"/>
  <text x="42" y="54" fill="#d8d2c4" font-family="Arial" font-size="28" font-weight="700">BUSINESS LOUNGE</text>
  <text x="42" y="82" fill="#9098a0" font-family="Arial" font-size="16">Area lavoro e stampa riservata agli ospiti</text>
</svg>
